<svg xmlns="http://www.w3.org/2000/svg" width="24" height="24" viewBox="0 0 24 24" fill="none" stroke="#1a73e8" stroke-width="2" stroke-linecap="round" stroke-linejoin="round" class="lucide lucide-bus">
  <path d="M8 6v6"></path>
  <path d="M16 6v6"></path>
  <path d="M2 12h20"></path>
  <path d="M7 18h10"></path>
  <path d="M18 18h1a2 2 0 0 0 2-2v-6.93a2 2 0 0 0-1.11-1.79l-8-4.4a2 2 0 0 0-1.78 0l-8 4.4A2 2 0 0 0 3 9.07V16a2 2 0 0 0 2 2h1"></path>
  <path d="M7 22a1.5 1.5 0 1 0 0-3 1.5 1.5 0 0 0 0 3z"></path>
  <path d="M17 22a1.5 1.5 0 1 0 0-3 1.5 1.5 0 0 0 0 3z"></path>
</svg>